<svg width="14" height="9" viewBox="0 0 14 9" fill="none" xmlns="http://www.w3.org/2000/svg">
<path d="M11.76 3.90938C11.8497 3.69442 11.9 3.45937 11.9 3.21429C11.9 2.14955 10.9594 1.28571 9.8 1.28571C9.36906 1.28571 8.96656 1.40625 8.63406 1.61116C8.02813 0.646875 6.89719 0 5.6 0C3.66625 0 2.1 1.43839 2.1 3.21429C2.1 3.26853 2.10219 3.32277 2.10437 3.37701C0.879375 3.77277 0 4.84554 0 6.10714C0 7.70424 1.41094 9 3.15 9H11.2C12.7466 9 14 7.84888 14 6.42857C14 5.18504 13.0375 4.14643 11.76 3.90938Z" fill="#787878"/>
</svg>
