<svg width="96" height="76" viewBox="0 0 96 76" fill="none" xmlns="http://www.w3.org/2000/svg">
<path d="M86.28 48.3367C86.31 48.0547 86.4 47.7875 86.4 47.5056C86.4 42.2667 82.095 38.0074 76.8 38.0074C74.91 38.0074 73.17 38.5714 71.685 39.4915C69.045 33.7333 63.21 29.6965 56.4 29.6965C47.13 29.6965 39.6 37.1318 39.6 46.3183C39.6 46.7635 39.705 47.1791 39.735 47.6094C32.295 48.1586 26.4 54.2433 26.4 61.7528C26.4 69.6184 32.85 76 40.8 76H81.6C89.55 76 96 69.6184 96 61.7528C96 55.5048 91.92 50.266 86.28 48.3367ZM21.72 44.9826C15.165 38.4972 15.165 27.9602 21.72 21.4896C28.275 15.0041 38.925 15.0041 45.48 21.4896C46.935 22.9291 48.015 24.5913 48.825 26.3425C50.295 25.7934 51.84 25.4521 53.43 25.2294L57.9 12.0359C58.5 10.2699 56.805 8.60769 55.02 9.18649L41.85 13.5349L35.625 1.24663C34.8 -0.415544 32.4 -0.415544 31.56 1.24663L25.35 13.5349L12.165 9.18649C10.395 8.60769 8.7 10.2847 9.285 12.0359L13.68 25.0662L1.26 31.2252C-0.42 32.0562 -0.42 34.4159 1.26 35.247L13.68 41.3911L9.285 54.4214C8.685 56.1875 10.38 57.8496 12.165 57.2708L23.58 53.5161C24.495 51.6758 25.68 49.9988 27.12 48.5444C25.155 47.743 23.31 46.5558 21.72 44.9826ZM21 33.2287C21 39.2837 25.395 44.3296 31.185 45.4427C32.385 44.7452 33.63 44.1367 34.965 43.7063C35.775 37.1318 39.615 31.4626 45.075 28.1234C43.095 23.8047 38.7 20.7772 33.6 20.7772C26.655 20.7772 21 26.3574 21 33.2287Z" fill="#787878"/>
</svg>
