<svg width="25" height="25" viewBox="0 0 25 25" fill="none" xmlns="http://www.w3.org/2000/svg">
<g clip-path="url(#clip0_21_189)">
<path d="M12.5 2.08331C9.0625 2.08331 6.25 4.89581 6.25 8.33331C6.25 13.75 12.5 19.8958 12.5 19.8958C12.5 19.8958 18.75 13.6458 18.75 8.33331C18.75 4.89581 15.9375 2.08331 12.5 2.08331ZM12.5 6.14581C13.6458 6.14581 14.6875 7.18748 14.6875 8.33331C14.6875 9.58331 13.75 10.5208 12.5 10.5208C11.25 10.5208 10.3125 9.47915 10.3125 8.33331C10.3125 7.08331 11.3542 6.14581 12.5 6.14581ZM7.08334 15.7291C5.72917 16.0416 4.6875 16.3541 3.75 16.7708C3.33334 16.9791 2.91667 17.2916 2.60417 17.6041C2.29167 17.9166 2.08334 18.5416 2.08334 19.0625C2.08334 19.8958 2.60417 20.5208 3.22917 20.9375C3.85417 21.3541 4.58334 21.6666 5.52084 21.9791C7.39584 22.6041 9.79167 22.9166 12.5 22.9166C15.2083 22.9166 17.6042 22.6041 19.4792 22.0833C20.4167 21.7708 21.1458 21.4583 21.7708 21.0416C22.3958 20.625 22.9167 20 22.9167 19.1666C22.9167 18.125 22.0833 17.3958 21.25 16.875C20.4167 16.3541 19.2708 16.0416 17.9167 15.8333L17.6042 17.9166C18.75 18.125 19.6875 18.4375 20.3125 18.75C20.7292 18.9583 20.8333 19.1666 20.9375 19.1666C20.9375 19.1666 20.8333 19.2708 20.7292 19.375C20.4167 19.5833 19.7917 19.8958 19.0625 20.1041C17.2917 20.5208 15 20.8333 12.5 20.8333C10 20.8333 7.70834 20.5208 6.14584 20C5.41667 19.7916 4.79167 19.4791 4.47917 19.2708C4.375 19.1666 4.27084 19.0625 4.27084 19.0625C4.375 18.9583 4.47917 18.8541 4.79167 18.6458C5.41667 18.3333 6.35417 18.0208 7.60417 17.8125L7.08334 15.7291Z" fill="#787878"/>
</g>
<defs>
<clipPath id="clip0_21_189">
<rect width="25" height="25" fill="white"/>
</clipPath>
</defs>
</svg>
