<svg width="48" height="48" viewBox="0 0 48 48" fill="none" xmlns="http://www.w3.org/2000/svg">
<g clip-path="url(#clip0_161_2869)">
<path fill-rule="evenodd" clip-rule="evenodd" d="M37 21.9692L23.5 12L10 21.9692L10.6429 23.8681H11.7143V36H35.2857V23.8681H36.3571L37 21.9692ZM13.8571 33.8901V21.7582L23.5 14.6374L33.1429 21.7582V33.8901H27.7859V27.6776L26.7144 26.6227H20.2858L19.2144 27.6776V33.8901H13.8571ZM21.3573 33.8901H25.643V28.7326H21.3573V33.8901Z" fill="#787878"/>
</g>
<path d="M9.6392 46V40.1818H13.2472V40.9375H10.517V42.7102H12.9886V43.4631H10.517V46H9.6392ZM15.7763 46.0881C15.3672 46.0881 15.0102 45.9943 14.7053 45.8068C14.4003 45.6193 14.1636 45.357 13.995 45.0199C13.8265 44.6828 13.7422 44.2888 13.7422 43.8381C13.7422 43.3854 13.8265 42.9896 13.995 42.6506C14.1636 42.3116 14.4003 42.0483 14.7053 41.8608C15.0102 41.6733 15.3672 41.5795 15.7763 41.5795C16.1854 41.5795 16.5424 41.6733 16.8473 41.8608C17.1522 42.0483 17.389 42.3116 17.5575 42.6506C17.7261 42.9896 17.8104 43.3854 17.8104 43.8381C17.8104 44.2888 17.7261 44.6828 17.5575 45.0199C17.389 45.357 17.1522 45.6193 16.8473 45.8068C16.5424 45.9943 16.1854 46.0881 15.7763 46.0881ZM15.7791 45.375C16.0443 45.375 16.264 45.3049 16.4382 45.1648C16.6125 45.0246 16.7412 44.8381 16.8246 44.6051C16.9098 44.3722 16.9524 44.1155 16.9524 43.8352C16.9524 43.5568 16.9098 43.3011 16.8246 43.0682C16.7412 42.8333 16.6125 42.6449 16.4382 42.5028C16.264 42.3608 16.0443 42.2898 15.7791 42.2898C15.5121 42.2898 15.2905 42.3608 15.1143 42.5028C14.9401 42.6449 14.8104 42.8333 14.7251 43.0682C14.6418 43.3011 14.6001 43.5568 14.6001 43.8352C14.6001 44.1155 14.6418 44.3722 14.7251 44.6051C14.8104 44.8381 14.9401 45.0246 15.1143 45.1648C15.2905 45.3049 15.5121 45.375 15.7791 45.375ZM18.7585 46V41.6364H19.5795V42.3295H19.625C19.7045 42.0947 19.8447 41.91 20.0455 41.7756C20.2481 41.6392 20.4773 41.571 20.733 41.571C20.786 41.571 20.8485 41.5729 20.9205 41.5767C20.9943 41.5805 21.0521 41.5852 21.0938 41.5909V42.4034C21.0597 42.3939 20.9991 42.3835 20.9119 42.3722C20.8248 42.3589 20.7377 42.3523 20.6506 42.3523C20.4498 42.3523 20.2708 42.3949 20.1136 42.4801C19.9583 42.5634 19.8352 42.6799 19.7443 42.8295C19.6534 42.9773 19.608 43.1458 19.608 43.3352V46H18.7585ZM25.0987 42.7017L24.3288 42.8381C24.2966 42.7396 24.2455 42.6458 24.1754 42.5568C24.1072 42.4678 24.0144 42.3949 23.897 42.3381C23.7796 42.2812 23.6328 42.2528 23.4567 42.2528C23.2161 42.2528 23.0154 42.3068 22.8544 42.4148C22.6934 42.5208 22.6129 42.6581 22.6129 42.8267C22.6129 42.9725 22.6669 43.09 22.7749 43.179C22.8828 43.268 23.0571 43.3409 23.2976 43.3977L23.9908 43.5568C24.3923 43.6496 24.6915 43.7926 24.8885 43.9858C25.0855 44.179 25.1839 44.4299 25.1839 44.7386C25.1839 45 25.1082 45.233 24.9567 45.4375C24.8071 45.6402 24.5978 45.7992 24.3288 45.9148C24.0618 46.0303 23.7521 46.0881 23.3999 46.0881C22.9112 46.0881 22.5125 45.9839 22.2038 45.7756C21.8951 45.5653 21.7057 45.267 21.6357 44.8807L22.4567 44.7557C22.5078 44.9697 22.6129 45.1316 22.772 45.2415C22.9311 45.3494 23.1385 45.4034 23.3942 45.4034C23.6726 45.4034 23.8951 45.3456 24.0618 45.2301C24.2285 45.1127 24.3118 44.9697 24.3118 44.8011C24.3118 44.6648 24.2607 44.5502 24.1584 44.4574C24.058 44.3646 23.9036 44.2945 23.6953 44.2472L22.9567 44.0852C22.5495 43.9924 22.2483 43.8447 22.0533 43.642C21.8601 43.4394 21.7635 43.1828 21.7635 42.8722C21.7635 42.6146 21.8355 42.3892 21.9794 42.196C22.1233 42.0028 22.3222 41.8523 22.576 41.7443C22.8298 41.6345 23.1205 41.5795 23.4482 41.5795C23.9197 41.5795 24.291 41.6818 24.5618 41.8864C24.8326 42.089 25.0116 42.3608 25.0987 42.7017ZM26.1179 46V41.6364H26.9673V46H26.1179ZM26.5469 40.9631C26.3991 40.9631 26.2723 40.9138 26.1662 40.8153C26.062 40.715 26.0099 40.5956 26.0099 40.4574C26.0099 40.3172 26.062 40.1979 26.1662 40.0994C26.2723 39.9991 26.3991 39.9489 26.5469 39.9489C26.6946 39.9489 26.8205 39.9991 26.9247 40.0994C27.0308 40.1979 27.0838 40.3172 27.0838 40.4574C27.0838 40.5956 27.0308 40.715 26.9247 40.8153C26.8205 40.9138 26.6946 40.9631 26.5469 40.9631ZM29.7436 46.0852C29.3913 46.0852 29.0769 45.9953 28.8004 45.8153C28.5258 45.6335 28.3099 45.375 28.1527 45.0398C27.9974 44.7027 27.9197 44.2983 27.9197 43.8267C27.9197 43.3551 27.9983 42.9517 28.1555 42.6165C28.3146 42.2812 28.5324 42.0246 28.8089 41.8466C29.0855 41.6686 29.3989 41.5795 29.7493 41.5795C30.0201 41.5795 30.2379 41.625 30.4027 41.7159C30.5694 41.8049 30.6982 41.9091 30.7891 42.0284C30.8819 42.1477 30.9538 42.2528 31.005 42.3438H31.0561V40.1818H31.9055V46H31.076V45.321H31.005C30.9538 45.4138 30.88 45.5199 30.7834 45.6392C30.6887 45.7585 30.558 45.8627 30.3913 45.9517C30.2247 46.0407 30.0088 46.0852 29.7436 46.0852ZM29.9311 45.3608C30.1754 45.3608 30.3819 45.2964 30.5504 45.1676C30.7209 45.0369 30.8497 44.8561 30.9368 44.625C31.0258 44.3939 31.0703 44.125 31.0703 43.8182C31.0703 43.5152 31.0268 43.25 30.9396 43.0227C30.8525 42.7955 30.7247 42.6184 30.5561 42.4915C30.3875 42.3646 30.1792 42.3011 29.9311 42.3011C29.6754 42.3011 29.4624 42.3674 29.2919 42.5C29.1214 42.6326 28.9927 42.8134 28.9055 43.0426C28.8203 43.2718 28.7777 43.5303 28.7777 43.8182C28.7777 44.1098 28.8213 44.3722 28.9084 44.6051C28.9955 44.8381 29.1243 45.0227 29.2947 45.1591C29.4671 45.2936 29.6792 45.3608 29.9311 45.3608ZM34.9986 46.0881C34.5687 46.0881 34.1984 45.9962 33.8878 45.8125C33.5791 45.6269 33.3404 45.3665 33.1719 45.0312C33.0052 44.6941 32.9219 44.2992 32.9219 43.8466C32.9219 43.3996 33.0052 43.0057 33.1719 42.6648C33.3404 42.3239 33.5753 42.0578 33.8764 41.8665C34.1795 41.6752 34.5336 41.5795 34.9389 41.5795C35.1851 41.5795 35.4238 41.6203 35.6548 41.7017C35.8859 41.7831 36.0933 41.911 36.277 42.0852C36.4607 42.2595 36.6056 42.4858 36.7116 42.7642C36.8177 43.0407 36.8707 43.3769 36.8707 43.7727V44.0739H33.402V43.4375H36.0384C36.0384 43.214 35.9929 43.0161 35.902 42.8438C35.8111 42.6695 35.6832 42.5322 35.5185 42.4318C35.3556 42.3314 35.1643 42.2812 34.9446 42.2812C34.706 42.2812 34.4976 42.34 34.3196 42.4574C34.1435 42.5729 34.0071 42.7244 33.9105 42.9119C33.8158 43.0975 33.7685 43.2992 33.7685 43.517V44.0142C33.7685 44.3059 33.8196 44.554 33.9219 44.7585C34.026 44.9631 34.1709 45.1193 34.3565 45.2273C34.5421 45.3333 34.759 45.3864 35.0071 45.3864C35.1681 45.3864 35.3149 45.3636 35.4474 45.3182C35.58 45.2708 35.6946 45.2008 35.7912 45.108C35.8878 45.0152 35.9616 44.9006 36.0128 44.7642L36.8168 44.9091C36.7524 45.1458 36.6368 45.3532 36.4702 45.5312C36.3054 45.7074 36.098 45.8447 35.848 45.9432C35.5999 46.0398 35.3168 46.0881 34.9986 46.0881Z" fill="#787878"/>
<defs>
<clipPath id="clip0_161_2869">
<rect width="30" height="30" fill="white" transform="translate(9 9)"/>
</clipPath>
</defs>
</svg>
