<svg width="48" height="48" viewBox="0 0 48 48" fill="none" xmlns="http://www.w3.org/2000/svg">
<path d="M15.6392 46V40.1818H17.7699C18.1828 40.1818 18.5246 40.25 18.7955 40.3864C19.0663 40.5208 19.2689 40.7036 19.4034 40.9347C19.5379 41.1638 19.6051 41.4223 19.6051 41.7102C19.6051 41.9527 19.5606 42.1572 19.4716 42.3239C19.3826 42.4886 19.2633 42.6212 19.1136 42.7216C18.9659 42.8201 18.803 42.892 18.625 42.9375V42.9943C18.8182 43.0038 19.0066 43.0663 19.1903 43.1818C19.3759 43.2955 19.5294 43.4574 19.6506 43.6676C19.7718 43.8778 19.8324 44.1335 19.8324 44.4347C19.8324 44.732 19.7623 44.9991 19.6222 45.2358C19.4839 45.4706 19.2699 45.6572 18.9801 45.7955C18.6903 45.9318 18.3201 46 17.8693 46H15.6392ZM16.517 45.2472H17.7841C18.2045 45.2472 18.5057 45.1657 18.6875 45.0028C18.8693 44.84 18.9602 44.6364 18.9602 44.392C18.9602 44.2083 18.9138 44.0398 18.821 43.8864C18.7282 43.733 18.5956 43.6108 18.4233 43.5199C18.2528 43.429 18.0502 43.3835 17.8153 43.3835H16.517V45.2472ZM16.517 42.6989H17.6932C17.8902 42.6989 18.0672 42.661 18.2244 42.5852C18.3835 42.5095 18.5095 42.4034 18.6023 42.267C18.697 42.1288 18.7443 41.9659 18.7443 41.7784C18.7443 41.5379 18.66 41.3362 18.4915 41.1733C18.3229 41.0104 18.0644 40.929 17.7159 40.929H16.517V42.6989ZM21.3423 46.2528L20.8679 45.929L23.9446 41.4176L24.419 41.7415L21.3423 46.2528ZM22.6435 46.0909C22.2344 46.0909 21.8774 45.9972 21.5724 45.8097C21.2675 45.6222 21.0308 45.3598 20.8622 45.0227C20.6937 44.6856 20.6094 44.2917 20.6094 43.8409C20.6094 43.3883 20.6937 42.9924 20.8622 42.6534C21.0308 42.3144 21.2675 42.0511 21.5724 41.8636C21.8774 41.6761 22.2344 41.5824 22.6435 41.5824C23.0526 41.5824 23.4096 41.6761 23.7145 41.8636C24.0194 42.0511 24.2562 42.3144 24.4247 42.6534C24.5933 42.9924 24.6776 43.3883 24.6776 43.8409C24.6776 44.2917 24.5933 44.6856 24.4247 45.0227C24.2562 45.3598 24.0194 45.6222 23.7145 45.8097C23.4096 45.9972 23.0526 46.0909 22.6435 46.0909ZM22.6463 45.3778C22.9115 45.3778 23.1312 45.3078 23.3054 45.1676C23.4796 45.0256 23.6084 44.8381 23.6918 44.6051C23.777 44.3722 23.8196 44.1165 23.8196 43.8381C23.8196 43.5597 23.777 43.303 23.6918 43.0682C23.6084 42.8333 23.4796 42.6449 23.3054 42.5028C23.1312 42.3608 22.9115 42.2898 22.6463 42.2898C22.3793 42.2898 22.1577 42.3608 21.9815 42.5028C21.8073 42.6449 21.6776 42.8333 21.5923 43.0682C21.509 43.303 21.4673 43.5597 21.4673 43.8381C21.4673 44.1165 21.509 44.3722 21.5923 44.6051C21.6776 44.8381 21.8073 45.0256 21.9815 45.1676C22.1577 45.3078 22.3793 45.3778 22.6463 45.3778ZM25.6257 46V41.6364H26.4467V42.3295H26.4922C26.5717 42.0947 26.7119 41.91 26.9126 41.7756C27.1153 41.6392 27.3445 41.571 27.6001 41.571C27.6532 41.571 27.7157 41.5729 27.7876 41.5767C27.8615 41.5805 27.9193 41.5852 27.9609 41.5909V42.4034C27.9268 42.3939 27.8662 42.3835 27.7791 42.3722C27.692 42.3589 27.6049 42.3523 27.5178 42.3523C27.317 42.3523 27.138 42.3949 26.9808 42.4801C26.8255 42.5634 26.7024 42.6799 26.6115 42.8295C26.5206 42.9773 26.4751 43.1458 26.4751 43.3352V46H25.6257ZM29.5455 43.4091V46H28.696V41.6364H29.5114V42.3466H29.5653C29.6657 42.1155 29.8229 41.9299 30.0369 41.7898C30.2528 41.6496 30.5246 41.5795 30.8523 41.5795C31.1496 41.5795 31.41 41.642 31.6335 41.767C31.857 41.8902 32.0303 42.0739 32.1534 42.3182C32.2765 42.5625 32.3381 42.8646 32.3381 43.2244V46H31.4886V43.3267C31.4886 43.0104 31.4063 42.7633 31.2415 42.5852C31.0767 42.4053 30.8504 42.3153 30.5625 42.3153C30.3655 42.3153 30.1903 42.358 30.0369 42.4432C29.8854 42.5284 29.7652 42.6534 29.6761 42.8182C29.589 42.9811 29.5455 43.178 29.5455 43.4091Z" fill="#787878"/>
<path d="M22.4971 14.7892C22.7111 14.2428 22.4418 13.6264 21.8954 13.4123C21.3491 13.1981 20.7326 13.4675 20.5185 14.0138L22.4971 14.7892ZM26.1278 22.2314C26.7146 22.2304 27.1895 21.754 27.1886 21.1672C27.1876 20.5804 26.7112 20.1055 26.1244 20.1064L26.1278 22.2314ZM21.5078 14.4015L21.2419 13.3728L21.2399 13.3733L21.5078 14.4015ZM33.5835 21.4409L32.5572 21.7165C32.6424 22.0334 32.8692 22.2932 33.1718 22.4204C33.4742 22.5476 33.8186 22.5278 34.1047 22.3669L33.5835 21.4409ZM33.8371 25.2659L34.2315 24.2794C33.9262 24.1572 33.5816 24.1835 33.2983 24.3501C33.015 24.5168 32.8247 24.8051 32.783 25.1312L33.8371 25.2659ZM14.1638 25.2659L15.2177 25.1312C15.176 24.8051 14.9858 24.5168 14.7024 24.3501C14.4191 24.1835 14.0746 24.1572 13.7694 24.2794L14.1638 25.2659ZM14.4173 21.4409L13.8962 22.3669C14.1822 22.5278 14.5266 22.5476 14.8291 22.4204C15.1317 22.2932 15.3585 22.0332 15.4435 21.7163L14.4173 21.4409ZM20.5185 14.0138C19.4166 16.8254 20.568 20.0183 23.2106 21.4796L24.24 19.6206C22.5301 18.675 21.784 16.6085 22.4971 14.7892L20.5185 14.0138ZM23.2106 21.4796C24.1034 21.9747 25.1068 22.2331 26.1278 22.2314L26.1244 20.1064C25.4651 20.1075 24.8166 19.9403 24.24 19.6206L23.2106 21.4796ZM21.7736 15.4302C26.484 14.213 31.2955 17.0179 32.5572 21.7165L34.6096 21.1654C33.0454 15.3409 27.081 11.8639 21.2419 13.3728L21.7736 15.4302ZM34.1047 22.3669C34.536 22.1239 35.078 22.2113 35.4114 22.5774L36.9826 21.1467C35.9826 20.0485 34.3565 19.7865 33.0623 20.515L34.1047 22.3669ZM35.4114 22.5774C35.7447 22.9434 35.781 23.4913 35.4989 23.8981L37.2453 25.1088C38.0916 23.8882 37.9826 22.2449 36.9826 21.1467L35.4114 22.5774ZM35.4989 23.8981C35.2169 24.305 34.6912 24.4631 34.2315 24.2794L33.4426 26.2525C34.8218 26.8039 36.399 26.3294 37.2453 25.1088L35.4989 23.8981ZM32.783 25.1312C32.2181 29.5512 28.4564 32.8627 24.0004 32.8627V34.9877C29.5258 34.9877 34.1904 30.8815 34.8909 25.4007L32.783 25.1312ZM24.0004 32.8627C19.5444 32.8627 15.7827 29.5512 15.2177 25.1312L13.1098 25.4007C13.8104 30.8815 18.475 34.9877 24.0004 34.9877V32.8627ZM13.7694 24.2794C13.3097 24.4631 12.7839 24.305 12.5019 23.8981L10.7555 25.1088C11.6018 26.3294 13.1789 26.8039 14.5581 26.2525L13.7694 24.2794ZM12.5019 23.8981C12.2198 23.4913 12.2561 22.9434 12.5894 22.5774L11.0182 21.1467C10.0182 22.2449 9.90924 23.8882 10.7555 25.1088L12.5019 23.8981ZM12.5894 22.5774C12.9227 22.2113 13.4647 22.1239 13.8962 22.3669L14.9385 20.515C13.6442 19.7865 12.0182 20.0485 11.0182 21.1467L12.5894 22.5774ZM15.4435 21.7163C16.2704 18.6346 18.6882 16.2342 21.7757 15.4297L21.2399 13.3733C17.4128 14.3706 14.416 17.3459 13.3911 21.1656L15.4435 21.7163Z" fill="#787878"/>
<path d="M19.751 24.7106C19.3605 24.7106 19.0427 24.3928 19.0427 24.0023C19.0427 23.6117 19.3605 23.2939 19.751 23.2939C20.1416 23.2939 20.4594 23.6117 20.4594 24.0023C20.4594 24.3928 20.1416 24.7106 19.751 24.7106Z" fill="#787878"/>
<path d="M19.751 25.4189C18.9686 25.4189 18.3344 24.7847 18.3344 24.0023C18.3344 23.2198 18.9686 22.5856 19.751 22.5856C20.5334 22.5856 21.1677 23.2198 21.1677 24.0023C21.1677 24.7847 20.5334 25.4189 19.751 25.4189Z" fill="#787878"/>
<path d="M28.251 24.7106C27.8604 24.7106 27.5427 24.3928 27.5427 24.0023C27.5427 23.6117 27.8604 23.2939 28.251 23.2939C28.6416 23.2939 28.9593 23.6117 28.9593 24.0023C28.9593 24.3928 28.6416 24.7106 28.251 24.7106Z" fill="#787878"/>
<path d="M28.251 25.4189C27.4687 25.4189 26.8343 24.7847 26.8343 24.0023C26.8343 23.2198 27.4687 22.5856 28.251 22.5856C29.0334 22.5856 29.6677 23.2198 29.6677 24.0023C29.6677 24.7847 29.0334 25.4189 28.251 25.4189Z" fill="#787878"/>
</svg>
