<svg width="48" height="48" viewBox="0 0 48 48" fill="none" xmlns="http://www.w3.org/2000/svg">
<path d="M12.02 16.4273V33.6548C12.02 34.937 13.0631 35.98 14.3452 35.98H33.3311C34.6131 35.98 35.6562 34.937 35.6562 33.6548V16.4273C35.6562 15.1452 34.6131 14.1021 33.3311 14.1021H30.938V12.8766C30.938 12.4035 30.5545 12.02 30.0814 12.02C29.6083 12.02 29.2248 12.4035 29.2248 12.8766V14.1021H18.4515V12.8766C18.4515 12.4035 18.068 12.02 17.5949 12.02C17.1218 12.02 16.7382 12.4035 16.7382 12.8766V14.1021H14.3452C13.0631 14.1021 12.02 15.1452 12.02 16.4273ZM33.9429 33.6548C33.9429 33.9927 33.669 34.2668 33.3311 34.2668H14.3452C14.0072 34.2668 13.7333 33.9927 13.7333 33.6548V20.2944H33.9429L33.9429 33.6548ZM17.5949 17.6496C18.068 17.6496 18.4515 17.266 18.4515 16.7929V15.8154H29.2248V16.7929C29.2248 17.266 29.6083 17.6496 30.0814 17.6496C30.5545 17.6496 30.938 17.266 30.938 16.7929V15.8154H33.3311C33.669 15.8154 33.9429 16.0894 33.9429 16.4273V18.5811H13.7333V16.4273C13.7333 16.0893 14.0073 15.8154 14.3452 15.8154H16.7382V16.7929C16.7382 17.266 17.1217 17.6496 17.5949 17.6496Z" fill="#787878"/>
<path d="M33.3311 36H14.3452C13.052 36 12 34.948 12 33.6548V16.4272C12 15.1341 13.052 14.0821 14.3452 14.082H16.7182V12.8766C16.7182 12.3932 17.1114 12 17.5948 12C18.0782 12 18.4715 12.3932 18.4715 12.8766V14.0821H29.2047V12.8766C29.2047 12.3932 29.598 12 30.0814 12C30.5647 12 30.958 12.3932 30.958 12.8766V14.0821H33.3311C34.6241 14.0821 35.6762 15.1342 35.6762 16.4273V33.6548C35.6762 34.948 34.6242 36 33.3311 36ZM14.3452 14.1221C13.0741 14.1221 12.04 15.1562 12.04 16.4273V33.6548C12.04 34.9259 13.0741 35.96 14.3452 35.96H33.3311C34.6021 35.96 35.6362 34.926 35.6362 33.6548V16.4273C35.6362 15.1562 34.6021 14.1221 33.3311 14.1221H30.918V12.8766C30.918 12.4153 30.5427 12.04 30.0814 12.04C29.62 12.04 29.2447 12.4153 29.2447 12.8766V14.1221H18.4315V12.8766C18.4315 12.4153 18.0562 12.04 17.5949 12.04C17.1336 12.04 16.7582 12.4153 16.7582 12.8766V14.1221H14.3452ZM33.3311 34.2867H14.3452C13.9967 34.2867 13.7133 34.0033 13.7133 33.6548V20.2744H33.9629V33.6548C33.9629 34.0033 33.6795 34.2867 33.3311 34.2867ZM13.7533 20.3144V33.6548C13.7533 33.9812 14.0188 34.2468 14.3452 34.2468H33.3311C33.6574 34.2468 33.923 33.9812 33.923 33.6548V20.3144H13.7533ZM33.9629 18.6011H13.7133V16.4273C13.7133 16.0789 13.9968 15.7954 14.3452 15.7954H16.7582V16.7929C16.7582 17.2543 17.1336 17.6296 17.5949 17.6296C18.0562 17.6296 18.4315 17.2543 18.4315 16.7929V15.7954H29.2448V16.7929C29.2448 17.2543 29.6201 17.6296 30.0814 17.6296C30.5427 17.6296 30.918 17.2543 30.918 16.7929V15.7954H33.3311C33.6795 15.7954 33.9629 16.0789 33.9629 16.4273V18.6011ZM13.7533 18.5611H33.923V16.4273C33.923 16.1009 33.6574 15.8354 33.3311 15.8354H30.958V16.7929C30.958 17.2763 30.5648 17.6696 30.0814 17.6696C29.598 17.6696 29.2048 17.2763 29.2048 16.7929V15.8354H18.4715V16.7929C18.4715 17.2763 18.0783 17.6696 17.5949 17.6696C17.1115 17.6696 16.7182 17.2763 16.7182 16.7929V15.8354H14.3452C14.0188 15.8354 13.7533 16.1009 13.7533 16.4273L13.7533 18.5611Z" fill="#787878"/>
<path d="M18.1341 24.3202C18.2167 24.3202 18.3007 24.3081 18.3839 24.2828L18.823 24.1492V31.5193C18.823 31.9924 19.2065 32.376 19.6796 32.376C20.1527 32.376 20.5363 31.9924 20.5363 31.5193V23.0052V22.9929C20.5363 22.9873 20.536 22.9817 20.5358 22.976C20.5357 22.968 20.5356 22.96 20.5352 22.9519C20.5345 22.9369 20.5335 22.9219 20.532 22.9071C20.5316 22.9032 20.531 22.8993 20.5306 22.8954C20.5295 22.8859 20.5283 22.8764 20.5269 22.867C20.5255 22.8573 20.5238 22.8477 20.522 22.838C20.5213 22.8343 20.5207 22.8306 20.52 22.827C20.5164 22.8088 20.512 22.7907 20.5072 22.7726C20.5055 22.7663 20.5038 22.7601 20.502 22.7539C20.501 22.7505 20.5002 22.747 20.4991 22.7435C20.4958 22.7326 20.4921 22.7218 20.4883 22.7111C20.4859 22.7042 20.4834 22.6973 20.4808 22.6905C20.4758 22.6771 20.4704 22.6638 20.4648 22.6508C20.4622 22.6448 20.4595 22.6389 20.4568 22.633C20.4491 22.6164 20.4411 22.5999 20.4325 22.584C20.3862 22.4987 20.3265 22.4235 20.257 22.3602C20.2564 22.3597 20.2558 22.3591 20.2552 22.3586C20.2474 22.3515 20.2393 22.3446 20.2311 22.3377C20.2284 22.3354 20.2257 22.333 20.2229 22.3308C20.2169 22.3258 20.2107 22.3211 20.2045 22.3162C20.1994 22.3123 20.1944 22.3083 20.1892 22.3045C20.1852 22.3015 20.1811 22.2987 20.1771 22.2959C20.1695 22.2905 20.1619 22.2851 20.1541 22.2799C20.1524 22.2788 20.1507 22.2777 20.149 22.2766C20.0598 22.2181 19.9593 22.1756 19.8512 22.1537C19.8334 22.1501 19.8155 22.1472 19.7974 22.1447C19.791 22.1438 19.7845 22.143 19.7781 22.1423C19.7638 22.1406 19.7494 22.1393 19.7349 22.1384C19.728 22.1379 19.7211 22.1376 19.7142 22.1373C19.7027 22.1368 19.6912 22.1364 19.6796 22.1364C19.6759 22.1364 19.6723 22.1367 19.6686 22.1367C19.6622 22.1368 19.6558 22.1369 19.6494 22.1372C19.6307 22.1378 19.6121 22.1389 19.5937 22.1407C19.5899 22.1411 19.586 22.1417 19.5822 22.1421C19.5726 22.1432 19.563 22.1444 19.5535 22.1457C19.544 22.1472 19.5346 22.1488 19.5251 22.1506C19.5212 22.1513 19.5173 22.1519 19.5134 22.1527C19.4988 22.1556 19.4842 22.1589 19.4696 22.1626C19.4619 22.1645 19.4544 22.1668 19.4468 22.1689C19.4412 22.1705 19.4357 22.1718 19.4301 22.1736L19.4186 22.1771L17.8849 22.644C17.4323 22.7818 17.1771 23.2604 17.3148 23.713C17.4273 24.0822 17.7669 24.3202 18.1341 24.3202Z" fill="#787878"/>
<path d="M19.6796 32.396C19.1962 32.396 18.803 32.0028 18.803 31.5194V24.1762L18.3897 24.302C18.3064 24.3274 18.2204 24.3402 18.1341 24.3402C17.7458 24.3402 17.4089 24.0904 17.2957 23.7187C17.155 23.2563 17.4167 22.7655 17.8791 22.6247L19.4243 22.1544C19.428 22.1532 19.4318 22.1522 19.4355 22.1512L19.448 22.1477C19.4535 22.1461 19.4591 22.1445 19.4648 22.1431C19.4797 22.1394 19.4946 22.136 19.5095 22.133L19.5216 22.1309C19.5312 22.1291 19.5408 22.1274 19.5505 22.1259C19.5603 22.1245 19.5701 22.1233 19.5799 22.1222L19.5916 22.1208C19.6106 22.1189 19.6296 22.1178 19.6488 22.1172C19.6553 22.1169 19.6619 22.1167 19.6684 22.1167L19.6796 22.1164C19.6915 22.1164 19.7033 22.1168 19.715 22.1173C19.7221 22.1175 19.7292 22.1179 19.7363 22.1184C19.751 22.1193 19.7658 22.1207 19.7804 22.1223L19.8001 22.1248C19.8187 22.1274 19.8371 22.1303 19.8552 22.134C19.9639 22.1561 20.0665 22.1984 20.16 22.2598L20.1652 22.2632C20.1732 22.2685 20.181 22.274 20.1888 22.2796L20.2222 22.3047C20.2267 22.3082 20.2312 22.3117 20.2356 22.3153L20.244 22.3224C20.2523 22.3294 20.2606 22.3365 20.2687 22.3438C20.343 22.4115 20.4035 22.4886 20.45 22.5745C20.4589 22.5908 20.467 22.6076 20.4749 22.6246C20.4777 22.6306 20.4804 22.6367 20.4831 22.6428C20.4889 22.6562 20.4944 22.6698 20.4995 22.6835C20.5022 22.6904 20.5047 22.6974 20.5072 22.7045C20.511 22.7155 20.5148 22.7265 20.5182 22.7377L20.5212 22.7484C20.523 22.7547 20.5248 22.7611 20.5264 22.7675C20.5314 22.786 20.5359 22.8045 20.5396 22.8231L20.5416 22.8344C20.5434 22.8443 20.5452 22.8542 20.5466 22.864C20.5481 22.8737 20.5492 22.8834 20.5503 22.8932L20.5518 22.9052C20.5533 22.9204 20.5544 22.9357 20.5551 22.951C20.5554 22.9574 20.5555 22.9639 20.5556 22.9703L20.5559 22.9815C20.556 22.9853 20.5562 22.9891 20.5562 22.993V31.5194C20.5563 32.0028 20.163 32.396 19.6796 32.396ZM18.843 24.1222V31.5194C18.843 31.9807 19.2183 32.356 19.6796 32.356C20.1409 32.356 20.5163 31.9807 20.5163 31.5194V22.9929L20.5157 22.9709C20.5156 22.9649 20.5155 22.9589 20.5152 22.9529C20.5146 22.9382 20.5135 22.9236 20.512 22.9091L20.5107 22.8976C20.5096 22.8884 20.5085 22.8791 20.5071 22.8699C20.5057 22.8604 20.504 22.851 20.5023 22.8416L20.5004 22.8308C20.4969 22.8131 20.4925 22.7954 20.4878 22.7777C20.4862 22.7715 20.4845 22.7655 20.4828 22.7594L20.48 22.7493C20.4767 22.7385 20.4731 22.728 20.4694 22.7176C20.4671 22.7109 20.4646 22.7042 20.4621 22.6975C20.4572 22.6844 20.4519 22.6715 20.4464 22.6587C20.4439 22.6529 20.4413 22.6472 20.4387 22.6414C20.4311 22.6251 20.4233 22.609 20.4149 22.5935C20.3705 22.5116 20.3128 22.438 20.2435 22.375C20.2341 22.3664 20.2262 22.3597 20.2182 22.353L20.2103 22.3462C20.2061 22.3429 20.2019 22.3396 20.1978 22.3363L20.1655 22.3122C20.1581 22.3068 20.1507 22.3015 20.1431 22.2965L20.149 22.2765L20.1381 22.2933C20.0488 22.2347 19.951 22.1943 19.8472 22.1732C19.8299 22.1697 19.8124 22.1669 19.7947 22.1645L19.7758 22.1621C19.7619 22.1605 19.7479 22.1592 19.7337 22.1583C19.7269 22.1579 19.7201 22.1575 19.7134 22.1573C19.7021 22.1568 19.691 22.1564 19.6796 22.1564L19.6689 22.1567C19.6627 22.1568 19.6564 22.1569 19.6502 22.1572C19.6319 22.1578 19.6137 22.1589 19.5958 22.1606L19.5845 22.162C19.5751 22.163 19.5657 22.1642 19.5564 22.1655C19.5473 22.1669 19.5381 22.1685 19.5289 22.1702L19.5173 22.1723C19.5031 22.1751 19.4888 22.1784 19.4746 22.182C19.4694 22.1833 19.4642 22.1848 19.459 22.1863L19.4245 22.1962L17.8908 22.6631C17.4495 22.7975 17.1997 23.2658 17.3341 23.7071C17.4421 24.0619 17.7636 24.3003 18.1342 24.3003C18.2165 24.3003 18.2986 24.288 18.3781 24.2638L18.843 24.1222Z" fill="#787878"/>
<path d="M24.8825 31.9438C25.4321 32.2306 26.0181 32.376 26.6241 32.376C27.2301 32.376 27.8161 32.2306 28.3657 31.9438C28.8817 31.6747 29.3419 31.2932 29.7336 30.8102C30.5097 29.8528 30.9371 28.5907 30.9371 27.2562C30.9371 25.9216 30.5097 24.6594 29.7336 23.7021C29.3419 23.2191 28.8817 22.8376 28.3657 22.5684C27.8161 22.2817 27.2301 22.1363 26.6241 22.1363C26.0181 22.1363 25.4321 22.2817 24.8825 22.5684C24.3665 22.8376 23.9062 23.2191 23.5146 23.7021C22.7385 24.6594 22.311 25.9216 22.311 27.2562C22.311 28.5907 22.7385 29.8529 23.5146 30.8102C23.9062 31.2932 24.3664 31.6747 24.8825 31.9438ZM24.8454 24.7811C25.3325 24.1804 25.9641 23.8496 26.6241 23.8496C27.284 23.8496 27.9157 24.1804 28.4028 24.7811C28.9323 25.4343 29.2239 26.3133 29.2239 27.2562C29.2239 28.1991 28.9323 29.0781 28.4028 29.7312C27.9157 30.3319 27.284 30.6628 26.6241 30.6628C25.9641 30.6628 25.3325 30.332 24.8454 29.7312C24.3159 29.0781 24.0243 28.1991 24.0243 27.2562C24.0243 26.3132 24.3159 25.4343 24.8454 24.7811Z" fill="#787878"/>
<path d="M26.6241 32.396C26.0148 32.396 25.4257 32.2498 24.8732 31.9616C24.3548 31.6912 23.8925 31.308 23.4991 30.8228C22.7201 29.862 22.2911 28.5953 22.2911 27.2562C22.2911 25.917 22.7201 24.6503 23.4991 23.6895C23.8925 23.2043 24.3548 22.8212 24.8732 22.5507C25.4257 22.2624 26.0148 22.1163 26.6241 22.1163C27.2334 22.1163 27.8225 22.2624 28.375 22.5507C28.8934 22.8212 29.3557 23.2043 29.7491 23.6895C30.5281 24.6503 30.9571 25.917 30.9571 27.2562C30.9571 28.5952 30.528 29.8619 29.7491 30.8228C29.3557 31.308 28.8934 31.6911 28.375 31.9616C27.8225 32.2498 27.2334 32.396 26.6241 32.396ZM26.6241 22.1563C26.0213 22.1563 25.4385 22.301 24.8917 22.5862C24.3781 22.8542 23.9201 23.2338 23.5301 23.7148C22.7569 24.6685 22.3311 25.9262 22.3311 27.2562C22.3311 28.5862 22.7569 29.8439 23.5301 30.7977C23.9201 31.2787 24.3782 31.6583 24.8917 31.9262C25.4384 32.2114 26.0213 32.3561 26.6241 32.3561C27.2269 32.3561 27.8097 32.2114 28.3564 31.9262C28.87 31.6583 29.3281 31.2786 29.718 30.7977C30.4913 29.8439 30.9171 28.5862 30.9171 27.2562C30.9171 25.9262 30.4913 24.6685 29.718 23.7148C29.3281 23.2339 28.87 22.8542 28.3564 22.5862C27.8097 22.3009 27.2269 22.1563 26.6241 22.1563ZM26.6241 30.6827C25.958 30.6827 25.3208 30.3493 24.8299 29.7437C24.2975 29.0871 24.0043 28.2037 24.0043 27.2562C24.0043 26.3087 24.2975 25.4252 24.8299 24.7685C25.3208 24.163 25.958 23.8295 26.6241 23.8295C27.2902 23.8295 27.9274 24.163 28.4183 24.7685C28.9506 25.4252 29.2439 26.3087 29.2439 27.2562C29.2439 28.2036 28.9507 29.0871 28.4183 29.7437C27.9274 30.3493 27.2902 30.6827 26.6241 30.6827ZM26.6241 23.8696C25.9703 23.8696 25.3442 24.1977 24.861 24.7937C24.3344 25.4433 24.0443 26.3178 24.0443 27.2562C24.0443 28.1946 24.3344 29.0691 24.861 29.7186C25.3441 30.3145 25.9702 30.6427 26.6241 30.6427C27.2779 30.6427 27.9041 30.3145 28.3872 29.7186C28.9139 29.069 29.2039 28.1945 29.2039 27.2562C29.2039 26.3179 28.9139 25.4434 28.3872 24.7937C27.904 24.1977 27.2778 23.8696 26.6241 23.8696Z" fill="#787878"/>
<rect x="15" y="21" width="18" height="12" fill="white"/>
<path d="M15.7209 30.1108V28.6442L20.0412 21.8182H21.2642V23.9062H20.5185L17.6101 28.5149V28.5945H23.6406V30.1108H15.7209ZM20.5781 32V29.6634L20.598 29.0071V21.8182H22.3381V32H20.5781ZM25.0451 30.1108V28.6442L29.3654 21.8182H30.5884V23.9062H29.8427L26.9343 28.5149V28.5945H32.9648V30.1108H25.0451ZM29.9023 32V29.6634L29.9222 29.0071V21.8182H31.6623V32H29.9023Z" fill="#787878"/>
<path d="M20.3807 40.1818H21.2614V44.0085C21.2614 44.4157 21.1657 44.7765 20.9744 45.0909C20.7831 45.4034 20.5142 45.6496 20.1676 45.8295C19.821 46.0076 19.4148 46.0966 18.9489 46.0966C18.4848 46.0966 18.0795 46.0076 17.733 45.8295C17.3864 45.6496 17.1174 45.4034 16.9261 45.0909C16.7348 44.7765 16.6392 44.4157 16.6392 44.0085V40.1818H17.517V43.9375C17.517 44.2008 17.5748 44.4347 17.6903 44.6392C17.8078 44.8438 17.9735 45.0047 18.1875 45.1222C18.4015 45.2377 18.6553 45.2955 18.9489 45.2955C19.2443 45.2955 19.4991 45.2377 19.7131 45.1222C19.929 45.0047 20.0938 44.8438 20.2074 44.6392C20.3229 44.4347 20.3807 44.2008 20.3807 43.9375V40.1818ZM24.299 47.7273C23.9524 47.7273 23.6541 47.6818 23.4041 47.5909C23.156 47.5 22.9534 47.3797 22.7962 47.2301C22.639 47.0805 22.5215 46.9167 22.4439 46.7386L23.174 46.4375C23.2251 46.5208 23.2933 46.6089 23.3786 46.7017C23.4657 46.7964 23.5831 46.8769 23.7308 46.9432C23.8804 47.0095 24.0727 47.0426 24.3075 47.0426C24.6295 47.0426 24.8956 46.964 25.1058 46.8068C25.3161 46.6515 25.4212 46.4034 25.4212 46.0625V45.2045H25.3672C25.3161 45.2973 25.2422 45.4006 25.1456 45.5142C25.0509 45.6278 24.9202 45.7263 24.7536 45.8097C24.5869 45.893 24.37 45.9347 24.103 45.9347C23.7583 45.9347 23.4477 45.8542 23.1712 45.6932C22.8965 45.5303 22.6787 45.2907 22.5178 44.9744C22.3587 44.6562 22.2791 44.2652 22.2791 43.8011C22.2791 43.3371 22.3577 42.9394 22.5149 42.608C22.674 42.2765 22.8918 42.0227 23.1683 41.8466C23.4448 41.6686 23.7583 41.5795 24.1087 41.5795C24.3795 41.5795 24.5982 41.625 24.7649 41.7159C24.9316 41.8049 25.0613 41.9091 25.1541 42.0284C25.2488 42.1477 25.3217 42.2528 25.3729 42.3438H25.4354V41.6364H26.2678V46.0966C26.2678 46.4716 26.1806 46.7794 26.0064 47.0199C25.8321 47.2604 25.5964 47.4384 25.299 47.554C25.0036 47.6695 24.6702 47.7273 24.299 47.7273ZM24.2905 45.2301C24.5348 45.2301 24.7412 45.1733 24.9098 45.0597C25.0803 44.9441 25.209 44.7794 25.2962 44.5653C25.3852 44.3494 25.4297 44.0909 25.4297 43.7898C25.4297 43.4962 25.3861 43.2377 25.299 43.0142C25.2119 42.7907 25.084 42.6165 24.9155 42.4915C24.7469 42.3646 24.5386 42.3011 24.2905 42.3011C24.0348 42.3011 23.8217 42.3674 23.6513 42.5C23.4808 42.6307 23.352 42.8087 23.2649 43.0341C23.1797 43.2595 23.1371 43.5114 23.1371 43.7898C23.1371 44.0758 23.1806 44.3267 23.2678 44.5426C23.3549 44.7585 23.4837 44.9271 23.6541 45.0483C23.8265 45.1695 24.0386 45.2301 24.2905 45.2301ZM29.2876 46.0881C28.8577 46.0881 28.4875 45.9962 28.1768 45.8125C27.8681 45.6269 27.6295 45.3665 27.4609 45.0312C27.2943 44.6941 27.2109 44.2992 27.2109 43.8466C27.2109 43.3996 27.2943 43.0057 27.4609 42.6648C27.6295 42.3239 27.8643 42.0578 28.1655 41.8665C28.4685 41.6752 28.8227 41.5795 29.228 41.5795C29.4742 41.5795 29.7128 41.6203 29.9439 41.7017C30.175 41.7831 30.3823 41.911 30.5661 42.0852C30.7498 42.2595 30.8946 42.4858 31.0007 42.7642C31.1068 43.0407 31.1598 43.3769 31.1598 43.7727V44.0739H27.6911V43.4375H30.3274C30.3274 43.214 30.282 43.0161 30.1911 42.8438C30.1001 42.6695 29.9723 42.5322 29.8075 42.4318C29.6446 42.3314 29.4534 42.2812 29.2337 42.2812C28.995 42.2812 28.7867 42.34 28.6087 42.4574C28.4325 42.5729 28.2962 42.7244 28.1996 42.9119C28.1049 43.0975 28.0575 43.2992 28.0575 43.517V44.0142C28.0575 44.3059 28.1087 44.554 28.2109 44.7585C28.3151 44.9631 28.46 45.1193 28.6456 45.2273C28.8312 45.3333 29.0481 45.3864 29.2962 45.3864C29.4571 45.3864 29.6039 45.3636 29.7365 45.3182C29.8691 45.2708 29.9837 45.2008 30.0803 45.108C30.1768 45.0152 30.2507 44.9006 30.3018 44.7642L31.1058 44.9091C31.0414 45.1458 30.9259 45.3532 30.7592 45.5312C30.5945 45.7074 30.3871 45.8447 30.1371 45.9432C29.889 46.0398 29.6058 46.0881 29.2876 46.0881Z" fill="#787878"/>
</svg>
