<svg width="9" height="6" viewBox="0 0 9 6" fill="none" xmlns="http://www.w3.org/2000/svg">
<path d="M8.78432 4.99887C8.44832 4.96136 8.12639 4.83477 7.87948 4.64097C7.65913 4.46749 7.34501 4.46437 7.12622 4.64097C6.53393 5.11608 5.45093 5.11608 4.84927 4.61753C4.63829 4.44249 4.33356 4.47531 4.11946 4.64566C3.5256 5.11608 2.44886 5.11452 1.85032 4.61909C1.63934 4.44405 1.32992 4.48 1.11425 4.65035C0.872025 4.84102 0.551657 4.96448 0.212536 5.00043C0.0890778 5.01293 0 5.12234 0 5.2458V5.74905C0 5.89127 0.11877 6.01161 0.260982 5.99911C0.711059 5.96003 1.13769 5.82094 1.50182 5.59432C2.38478 6.13508 3.64281 6.12726 4.50233 5.59432C5.3853 6.13508 6.64333 6.12726 7.50285 5.59432C7.86697 5.81625 8.2983 5.95847 8.739 5.99754C8.88121 6.01005 8.99998 5.8897 8.99998 5.74748V5.25362C9.00154 5.12859 8.9109 5.01293 8.78432 4.99887ZM8.78432 2.74833C8.44832 2.71083 8.12639 2.58423 7.87948 2.39044C7.65913 2.21696 7.34501 2.21383 7.12622 2.39044C6.53393 2.86555 5.45093 2.86555 4.84927 2.36699C4.63829 2.19195 4.33356 2.22477 4.11946 2.39513C3.5256 2.86555 2.44886 2.86399 1.85032 2.36856C1.63934 2.19352 1.32992 2.22946 1.11425 2.39981C0.872025 2.59048 0.551657 2.71395 0.212536 2.7499C0.0890778 2.7624 0 2.8718 0 2.99527V3.49851C0 3.64073 0.11877 3.76107 0.260982 3.74857C0.711059 3.7095 1.13769 3.5704 1.50182 3.34379C2.38478 3.88454 3.64281 3.87673 4.50233 3.34379C5.3853 3.88454 6.64333 3.87673 7.50285 3.34379C7.86697 3.56572 8.2983 3.70794 8.739 3.74701C8.88121 3.75951 8.99998 3.63917 8.99998 3.49695V3.00308C9.00154 2.87805 8.9109 2.7624 8.78432 2.74833ZM8.78432 0.4978C8.44832 0.458728 8.12639 0.333699 7.87948 0.139903C7.65913 -0.0335761 7.34501 -0.0367019 7.12622 0.139903C6.53393 0.615015 5.45093 0.615015 4.84927 0.11646C4.63829 -0.058582 4.33356 -0.0257617 4.11946 0.144591C3.5256 0.615015 2.44886 0.613452 1.85032 0.118022C1.63934 -0.0570192 1.32992 -0.0210732 1.11425 0.14928C0.872025 0.33995 0.551657 0.463417 0.212536 0.499363C0.0890778 0.511866 0 0.621267 0 0.744734V1.24798C0 1.3902 0.11877 1.51054 0.260982 1.49804C0.711059 1.45897 1.13769 1.31987 1.50182 1.09325C2.38478 1.63401 3.64281 1.62619 4.50233 1.09325C5.3853 1.63401 6.64333 1.62619 7.50285 1.09325C7.86697 1.31518 8.2983 1.4574 8.739 1.49647C8.88121 1.50898 8.99998 1.38864 8.99998 1.24642V0.752548C9.00154 0.627518 8.9109 0.511866 8.78432 0.4978Z" fill="#484848"/>
</svg>
