<svg width="48" height="48" viewBox="0 0 48 48" fill="none" xmlns="http://www.w3.org/2000/svg">
<path d="M35.9052 39.6805C35.782 40.1297 35.3754 40.6975 34.8815 40.75L34.8549 40.7521C34.4312 40.7886 33.9837 40.7615 33.5571 40.7616L14.2384 40.762C13.6664 40.762 13.0646 40.8794 12.5895 40.4845C12.3799 40.3104 12.1073 39.9165 12.0934 39.6365L12.0827 33.0178C12.0947 32.6066 12.1747 32.1938 12.1953 31.7804L12.3053 28.8096C12.3134 28.6255 12.3464 28.4483 12.3578 28.2659L12.6016 24.184C12.6099 24.0659 12.6392 23.9529 12.6473 23.8345L12.6834 22.8242C12.6944 22.5935 12.7255 22.3792 12.6996 22.1481C12.2105 22.5656 11.8767 23.1124 11.4034 23.5354C10.3054 24.5167 9.42596 23.7341 8.62332 22.8321L7.41798 21.4016C5.93274 19.5381 4.59892 17.1496 3.72784 14.9317C3.31186 13.8726 2.9628 12.9089 3.86051 11.9494C4.30979 11.4691 5.04024 11.2383 5.6274 10.9834L7.01907 10.3175C9.58328 8.94356 11.4529 7.3776 14.4695 7.22882L15.7697 7.24232C15.9949 7.25399 16.2146 7.2967 16.4385 7.31493L17.2547 7.3529C17.4281 7.36134 17.5921 7.41632 17.7648 7.41702C18.837 7.42134 19.1954 6.9839 19.8491 8.02729C21.7172 11.0092 25.4792 11.4813 27.7255 8.60479C27.9694 8.29241 28.1361 7.92749 28.3818 7.62074C28.7292 7.18715 29.0729 7.34465 29.5448 7.3559L30.8972 7.34798C31.1462 7.34146 31.4021 7.34512 31.6495 7.31713C35.1528 6.92109 36.8089 7.91652 39.8258 9.66065L42.6445 11.1193C43.9107 11.6771 44.6982 11.9483 44.6925 13.4459C44.6921 13.5559 44.6986 13.6904 44.664 13.7957L44.4837 14.3789C43.4302 17.4165 41.6105 20.2814 39.4957 22.6892C39.0409 23.2069 38.579 23.8243 37.8538 23.9367C36.6836 24.1182 36.167 22.7979 35.268 22.1388C35.2262 22.4077 35.2863 22.6641 35.3076 22.9313L35.539 26.5082C35.5492 26.6777 35.5919 26.8402 35.6011 27.0116L35.6311 28.155C35.6372 28.2814 35.6636 28.4006 35.671 28.5262L35.8131 32.3437C35.8167 32.5762 35.8541 32.8039 35.8614 33.0352L35.9052 39.6805ZM14.3683 8.61501C13.2029 8.67224 12.0362 9.03276 11.029 9.62643L12.3181 13.8771C12.5566 14.6939 12.6857 15.5665 12.8555 16.3994L13.2564 19.0367C13.334 19.4686 13.3995 19.8486 13.6176 20.2426C14.0177 20.9652 14.0641 21.0117 14.0615 21.8758L13.9518 24.1018L13.5483 30.8252C13.5366 31.0404 13.4936 31.2482 13.487 31.4649L13.4613 33.1982C13.4562 33.3555 13.4263 33.5092 13.4207 33.6665L13.4133 34.9017C13.4133 35.0319 13.3864 35.2297 13.4271 35.352L29.8166 35.3467C30.2739 35.3469 30.7539 35.2527 30.9577 35.7773L30.975 35.8129C31.1103 36.1101 30.9363 36.4468 30.7031 36.6313L30.6808 36.6495C30.4534 36.8319 29.3658 36.7304 29.0476 36.7305L13.4225 36.7353C13.3823 37.3789 13.3592 38.745 13.4284 39.3866L22.8164 39.39L34.5687 39.3884L34.5646 34.6381C34.561 34.4249 34.5245 34.2159 34.521 34.0027L34.4442 30.7801C34.4403 30.658 34.4171 30.5377 34.4122 30.4155L34.3003 27.8393C34.2902 27.6686 34.255 27.5024 34.2453 27.3303L34.0663 24.6834C34.0279 24.152 33.9631 23.5426 33.9498 23.0205L33.9307 22.2203C33.8988 21.2077 33.7927 21.2443 34.3195 20.3437C34.7708 19.5722 34.786 18.7366 34.9064 17.8711L35.2036 16.1054C35.5295 14.4573 35.9323 12.8339 36.4351 11.2305L36.9891 9.65568C35.7035 8.86584 34.2448 8.58848 32.7556 8.61871L31.7492 8.68068C31.2129 11.8388 28.4102 13.4014 25.7883 14.6486L24.6094 15.1897C24.0952 15.406 23.9778 15.4207 23.4812 15.211L21.2014 14.1591C19.1756 13.1405 16.5277 11.3065 16.3196 8.82721C16.3141 8.76135 16.3412 8.68106 16.2689 8.66549L14.3683 8.61501ZM18.6454 8.70791C18.3382 8.75606 18.0425 8.79238 17.7305 8.78812C17.6747 8.85796 17.8304 9.28884 17.8622 9.37499C18.5627 11.2761 20.5841 12.3491 22.2951 13.1875L24.0034 13.9299C25.9436 13.1647 28.0396 12.1703 29.4184 10.5569C29.698 10.1885 30.3259 9.21018 30.3393 8.7231L29.3529 8.6931C28.9962 9.13002 28.699 9.61574 28.3113 10.0313C27.1055 11.3235 24.9413 12.2309 23.1506 11.8647C21.2008 11.4659 19.7221 10.3454 18.6454 8.70791ZM9.829 10.2773L8.67189 10.9654C7.97354 11.3779 7.24304 11.8041 6.48653 12.1005C6.63235 12.4414 6.83199 12.7624 6.98537 13.1016C7.49912 14.2375 8.07896 15.3541 8.72223 16.4228L10.6944 19.3563L12.0432 20.9879L12.3903 20.6973L12.2665 20.433C12.0312 20.0092 11.9672 19.4544 11.8993 18.9802L11.4187 15.9943C11.3045 15.4749 10.0231 10.3745 9.84498 10.2809L9.829 10.2773ZM38.1695 10.2896C37.923 10.9255 37.7291 11.6132 37.5426 12.2695L36.6579 15.6445L36.0958 19.0078C36.019 19.5998 35.9244 20.1819 35.6416 20.7154L35.9821 20.9741L37.2999 19.3709L38.4866 17.7016C39.1345 16.7227 39.734 15.684 40.2664 14.6376L41.4513 12.0636C40.6713 11.7528 38.9059 10.7933 38.1695 10.2896ZM42.6706 12.6194C41.5848 15.3101 40.1637 17.8231 38.4237 20.1445C37.9745 20.7439 37.5467 21.349 36.9904 21.8574C37.1462 22.0737 37.3742 22.4482 37.6302 22.5408L37.6854 22.5352C38.0488 22.3389 38.374 21.8848 38.6471 21.5739C40.3519 19.6333 42.4312 16.409 43.1962 13.8601C43.4249 13.0982 43.4312 12.967 42.6706 12.6194ZM5.28184 12.6641C4.81595 12.8912 4.54534 13.0837 4.70265 13.6195L4.72796 13.704C4.75557 13.7929 4.77287 13.8822 4.80821 13.9687L4.97439 14.4142C5.06514 14.7164 5.23665 15.0632 5.37892 15.3424L6.30104 17.2037C6.9444 18.4496 7.7581 19.623 8.62918 20.7176L9.439 21.7092C9.70632 22.0084 9.97567 22.3674 10.3242 22.5742L10.3945 22.5476C10.6186 22.4054 10.8245 22.1249 11.0088 21.9272C9.34867 20.0632 7.72848 17.5848 6.59429 15.3925L5.28184 12.6641Z" fill="#787878"/>
</svg>
