<svg width="9" height="9" viewBox="0 0 9 9" fill="none" xmlns="http://www.w3.org/2000/svg">
<path d="M4.50022 2.8125C3.57029 2.8125 2.81264 3.57012 2.81264 4.5C2.81264 5.42988 3.57029 6.1875 4.50022 6.1875C5.43015 6.1875 6.1878 5.42988 6.1878 4.5C6.1878 3.57012 5.43015 2.8125 4.50022 2.8125ZM8.83168 4.22754L7.16695 3.39609L7.75585 1.63125C7.83495 1.39219 7.60818 1.16543 7.37087 1.24629L5.60594 1.83516L4.77269 0.16875C4.66019 -0.05625 4.34025 -0.05625 4.22774 0.16875L3.39626 1.8334L1.62957 1.24453C1.3905 1.16543 1.16373 1.39219 1.24459 1.62949L1.83349 3.39434L0.168758 4.22754C-0.0562527 4.34004 -0.0562527 4.65996 0.168758 4.77246L1.83349 5.60391L1.24459 7.37051C1.16549 7.60957 1.39226 7.83633 1.62957 7.75547L3.3945 7.1666L4.22599 8.83125C4.33849 9.05625 4.65843 9.05625 4.77093 8.83125L5.60242 7.1666L7.36735 7.75547C7.60642 7.83457 7.83319 7.60781 7.75233 7.37051L7.16343 5.60566L8.82816 4.77422C9.05669 4.65996 9.05669 4.34004 8.83168 4.22754ZM6.09112 6.09082C5.21392 6.96797 3.78651 6.96797 2.90932 6.09082C2.03213 5.21367 2.03213 3.78633 2.90932 2.90918C3.78651 2.03203 5.21392 2.03203 6.09112 2.90918C6.96831 3.78633 6.96831 5.21367 6.09112 6.09082Z" fill="#484848"/>
</svg>
