<svg width="9" height="8" viewBox="0 0 9 8" fill="none" xmlns="http://www.w3.org/2000/svg">
<path d="M8.99543 4.38836C8.54854 2.25825 6.83286 0.978316 5 0.77984V0.500098C5 0.223481 4.77655 0 4.49998 0C4.22341 0 3.99997 0.223481 3.99997 0.500098V0.77984C2.16085 0.978316 0.4608 2.25825 0.00453623 4.38836C-0.0298398 4.5462 0.137353 4.72123 0.296732 4.56652C1.10926 3.70697 1.9796 3.74761 2.77493 5.14476C2.85775 5.29322 3.00775 5.27916 3.08275 5.14476C3.39839 4.59152 3.78434 4.00078 4.49998 4.00078C5.41407 4.00078 5.87815 5.07599 5.91721 5.14476C5.99221 5.27916 6.14222 5.29322 6.22503 5.14476C7.02193 3.74604 7.89852 3.71635 8.70323 4.56652C8.86418 4.7228 9.02981 4.5462 8.99543 4.38836ZM3.99997 4.71498V6.75132C3.99997 6.88885 3.88746 7.00137 3.74996 7.00137C3.62808 7.00137 3.5437 6.91854 3.51402 6.83415C3.42183 6.57316 3.13744 6.43719 2.8765 6.5294C2.61555 6.62161 2.47961 6.9076 2.5718 7.16703C2.74681 7.66556 3.22182 8 3.74996 8C4.43904 8 5 7.43895 5 6.74976V4.71342C4.85781 4.58996 4.69061 4.50088 4.49998 4.50088C4.30779 4.50244 4.14997 4.57589 3.99997 4.71498Z" fill="#484848"/>
</svg>
