<svg width="34" height="22" viewBox="0 0 34 22" fill="none" xmlns="http://www.w3.org/2000/svg">
<path d="M28.56 9.55625C28.7778 9.0308 28.9 8.45625 28.9 7.85714C28.9 5.25446 26.6156 3.14286 23.8 3.14286C22.7534 3.14286 21.7759 3.4375 20.9684 3.93839C19.4969 1.58125 16.7503 0 13.6 0C8.90375 0 5.1 3.51607 5.1 7.85714C5.1 7.98973 5.10531 8.12232 5.11062 8.25491C2.13562 9.22232 0 11.8446 0 14.9286C0 18.8326 3.42656 22 7.65 22H27.2C30.9559 22 34 19.1862 34 15.7143C34 12.6746 31.6625 10.1357 28.56 9.55625Z" fill="#787878"/>
</svg>
