<svg width="9" height="8" viewBox="0 0 9 8" fill="none" xmlns="http://www.w3.org/2000/svg">
<path d="M2.75437 3.99977H0.281238C0.126557 3.99977 0 4.12836 0 4.28552V4.85701C0 5.01418 0.126557 5.14276 0.281238 5.14276H2.78074C3.06022 5.14276 3.32212 5.33743 3.36782 5.61782C3.42583 5.975 3.15514 6.28575 2.81238 6.28575C2.56454 6.28575 2.35361 6.12144 2.27803 5.89463C2.24111 5.78212 2.12686 5.71425 2.01085 5.71425H1.43431C1.26205 5.71425 1.12319 5.87142 1.15483 6.04286C1.306 6.83045 1.99152 7.42874 2.81062 7.42874C3.81429 7.42874 4.61582 6.53399 4.48399 5.48923C4.37676 4.62485 3.61039 3.99977 2.75437 3.99977ZM0.281238 3.42828H6.18723C7.2366 3.42828 8.06449 2.4496 7.83599 1.34412C7.7024 0.697613 7.18738 0.17434 6.55108 0.03861C5.5773 -0.168556 4.7037 0.483303 4.53144 1.38698C4.49805 1.55843 4.63867 1.7138 4.80917 1.7138H5.3857C5.50347 1.7138 5.61597 1.64594 5.65288 1.53342C5.72846 1.30661 5.93939 1.14231 6.18723 1.14231C6.52823 1.14231 6.80068 1.45306 6.74268 1.81024C6.69698 2.09063 6.43683 2.28529 6.15559 2.28529H0.281238C0.126557 2.28529 0 2.41388 0 2.57104V3.14253C0 3.29969 0.126557 3.42828 0.281238 3.42828ZM7.03095 3.99977H4.2836C4.62285 4.29624 4.86717 4.69271 4.98318 5.14276H7.03095C7.49675 5.14276 7.87466 5.52673 7.87466 6C7.87466 6.47327 7.49675 6.85724 7.03095 6.85724C6.71631 6.85724 6.44562 6.68044 6.29973 6.42148C6.24875 6.33218 6.1468 6.28575 6.04486 6.28575H5.45074C5.25915 6.28575 5.11677 6.47863 5.18181 6.66258C5.49468 7.56625 6.42101 8.17703 7.45632 7.95379C8.18051 7.79842 8.77638 7.21085 8.94512 6.47684C9.24569 5.16955 8.27015 3.99977 7.03095 3.99977Z" fill="#484848"/>
</svg>
