<svg width="48" height="48" viewBox="0 0 48 48" fill="none" xmlns="http://www.w3.org/2000/svg">
<path d="M24.8436 23.291L24.6402 19.9741L24.4133 18.1872C24.3774 17.9132 24.0953 15.6417 23.7349 17.0622C23.5861 17.6486 23.5547 18.2833 23.4885 18.8834L23.227 21.6783C23.2105 21.9265 23.1634 22.1722 23.1542 22.4222L23.1532 44.5721C23.1538 45.0802 23.1917 45.6727 22.4537 45.7116L15.5208 45.7173C14.946 45.7185 13.9817 45.8441 13.9697 45.0113L13.9622 42.0365C13.9574 41.8185 13.9074 41.6066 13.9036 41.3906L13.8861 39.1641L13.3986 31.4085L12.2632 18.9992C12.2526 18.8544 12.2216 18.7127 12.2123 18.5674L12.1163 16.6406L12.1146 10.9453C12.1158 10.7394 12.1458 10.5419 12.1625 10.3376L12.266 9.21093C12.3359 8.5822 12.3833 7.94784 12.4941 7.32421L12.9328 5.31506C13.0587 4.86417 13.0577 4.8321 13.0558 4.35455L13.0565 2.92968C13.0716 2.1644 13.9179 2.31639 14.4217 2.31598L16.4734 2.31583L34.1442 2.31876C34.7895 2.33979 34.7803 2.90467 34.8271 3.41766L34.9213 4.10106C35.1287 5.52581 35.4596 6.92409 35.6256 8.35546L35.873 10.8054C35.9207 11.6579 35.8855 12.5314 35.8855 13.3858L35.8755 16.9777C35.8705 17.1734 35.8399 17.361 35.8269 17.5547L35.6755 19.9939L35.1617 24.8903L34.3815 33.8319L34.1708 38.4389C34.1649 38.5835 34.1356 38.726 34.1302 38.8711L34.1245 39.8555C34.1204 40.0206 34.0926 40.1838 34.0873 40.3487L34.0773 44.9541C34.0734 45.042 34.0549 45.1299 34.0165 45.2095L34.0041 45.2344C33.8878 45.4769 33.6794 45.7058 33.394 45.7167L25.8853 45.7129C25.7179 45.7127 25.4947 45.7379 25.339 45.6737L25.3125 45.6621C24.7487 45.4352 24.839 45.0333 24.8393 44.5355L24.8436 23.291ZM14.353 3.58391L14.3427 4.56617L16.5906 4.58284C16.5895 4.25876 16.6118 3.91211 16.5738 3.58794L14.353 3.58391ZM17.8895 3.58884C17.8557 3.75829 17.876 3.91267 17.881 4.07496L17.88 4.54607L25.6125 4.5796L25.6134 3.59085L17.8895 3.58884ZM26.8854 3.58858L26.88 4.30876C26.8805 4.38069 26.866 4.49253 26.8977 4.55425C27.2938 4.60123 27.7186 4.57267 28.118 4.57338L30.1289 4.58772C30.162 4.30244 30.1876 3.87273 30.1339 3.58769L26.8854 3.58858ZM31.4125 3.58917C31.4065 3.90459 31.3809 4.23859 31.4155 4.54627L33.6914 4.56861L33.5723 3.58795L31.4125 3.58917ZM14.5553 5.81306L14.1287 5.83471L14.0793 6.01467C13.8656 6.65798 13.6309 8.20795 13.5662 8.94538C14.0753 8.85599 14.5412 8.67056 14.9728 8.38743C15.7236 7.87701 16.2482 7.09073 16.4201 6.19692L16.4793 5.82707L14.5553 5.81306ZM17.8027 5.8101C17.7368 6.14685 17.7002 6.48342 17.607 6.81782C17.08 8.70876 15.4015 10.0935 13.459 10.2801C13.4316 10.4768 13.4031 10.6536 13.3934 10.8551L13.3786 16.6378C13.3839 17.0438 13.3623 17.4836 13.4285 17.8833L15.183 42.212L19.0475 42.2127L21.9017 42.2249L21.9397 21.583L22.2878 18.1429C22.4005 17.2742 22.4306 16.2357 23.0672 15.5602C23.1572 15.4647 23.2735 15.4156 23.3606 15.3126L23.3638 6.71188C23.3638 6.43401 23.3972 6.10565 23.3571 5.83448L17.8027 5.8101ZM24.667 5.82121C24.5693 5.95612 24.633 6.22204 24.6331 6.37687L24.6185 13.2854C24.8199 13.138 24.9666 12.9937 25.1233 12.7977C25.556 12.1955 25.6139 11.7749 25.6149 11.0727L25.614 5.83631C25.549 5.79356 24.7858 5.81526 24.667 5.82121ZM26.9412 5.81657C26.8359 5.9399 26.8793 6.73298 26.8792 6.9411L26.8801 10.2628C26.8808 10.7929 26.9332 11.3462 26.8712 11.872C26.7356 13.0213 26.0187 14.1522 24.9108 14.5693C24.8144 14.6056 24.7045 14.6168 24.62 14.6777C24.6235 14.9433 24.5072 15.2504 24.7601 15.4072C25.2267 15.6967 25.4257 16.358 25.5066 16.8804C25.7919 18.7223 26.021 20.5801 26.1019 22.4454L26.0933 42.2288L32.161 42.2127C32.3684 42.2189 32.6193 42.2542 32.8218 42.2205L32.8328 39.7297L32.9313 37.4232L33.2088 32.6836L33.6837 27.0431L34.2139 21.8973L34.5872 17.4695L34.6136 11.8771C34.613 11.346 34.6171 10.8205 34.5489 10.2925C32.4399 9.95278 30.7494 8.65115 30.3196 6.4634C30.2776 6.24946 30.2657 6.02981 30.2215 5.81643L26.9412 5.81657ZM31.5427 5.81648C31.6142 7.26871 32.8359 8.63278 34.2422 8.90746L34.4298 8.94595L33.9275 5.82867L31.5427 5.81648ZM15.2128 43.4872C15.1948 43.6673 15.1578 44.2724 15.2267 44.4317L21.9159 44.4312L21.9085 43.5133C21.8614 43.4718 15.7966 43.47 15.2128 43.4872ZM26.3345 43.4823L26.1092 43.4996C26.059 43.5976 26.0674 44.2873 26.0948 44.4203L32.6149 44.4246L32.8238 44.4208L32.8183 43.4935L26.3345 43.4823Z" fill="#787878"/>
</svg>
